<svg xmlns="http://www.w3.org/2000/svg" width="1300" height="900" viewBox="0 0 1300 900">
<rect width="1300" height="900" fill="#f8fafc"/>
<text x="42" y="54" font-family="Segoe UI, Arial, sans-serif" font-size="30" font-weight="700" fill="#172033">Evaluation System Comparison</text>
<text x="42" y="82" font-family="Segoe UI, Arial, sans-serif" font-size="14" font-weight="400" fill="#667085">Metrics-only, single-LLM, and multi-agent outputs scored against the same draft reference labels.</text>
<rect x="42" y="112" width="1216" height="236" rx="8" fill="#ffffff" stroke="#d0d5dd"/>
<text x="66" y="148" font-family="Segoe UI, Arial, sans-serif" font-size="15" font-weight="700" fill="#172033">Precision</text>
<text x="66" y="184" font-family="Segoe UI, Arial, sans-serif" font-size="12" font-weight="400" fill="#667085">Metrics-Only</text>
<rect x="186" y="172" width="260" height="14" rx="4" fill="#eef2f6"/>
<rect x="186" y="172" width="249" height="14" rx="4" fill="#2563eb"/>
<text x="458" y="185" font-family="Segoe UI, Arial, sans-serif" font-size="12" font-weight="700" fill="#172033">96.0%</text>
<text x="66" y="218" font-family="Segoe UI, Arial, sans-serif" font-size="12" font-weight="400" fill="#667085">Single LLM</text>
<rect x="186" y="206" width="260" height="14" rx="4" fill="#eef2f6"/>
<rect x="186" y="206" width="248" height="14" rx="4" fill="#2563eb"/>
<text x="458" y="219" font-family="Segoe UI, Arial, sans-serif" font-size="12" font-weight="700" fill="#172033">95.7%</text>
<text x="66" y="252" font-family="Segoe UI, Arial, sans-serif" font-size="12" font-weight="400" fill="#667085">Multi-Agent</text>
<rect x="186" y="240" width="260" height="14" rx="4" fill="#eef2f6"/>
<rect x="186" y="240" width="141" height="14" rx="4" fill="#2563eb"/>
<text x="458" y="253" font-family="Segoe UI, Arial, sans-serif" font-size="12" font-weight="700" fill="#172033">54.5%</text>
<text x="674" y="148" font-family="Segoe UI, Arial, sans-serif" font-size="15" font-weight="700" fill="#172033">Recall</text>
<text x="674" y="184" font-family="Segoe UI, Arial, sans-serif" font-size="12" font-weight="400" fill="#667085">Metrics-Only</text>
<rect x="794" y="172" width="260" height="14" rx="4" fill="#eef2f6"/>
<rect x="794" y="172" width="231" height="14" rx="4" fill="#2563eb"/>
<text x="1066" y="185" font-family="Segoe UI, Arial, sans-serif" font-size="12" font-weight="700" fill="#172033">88.9%</text>
<text x="674" y="218" font-family="Segoe UI, Arial, sans-serif" font-size="12" font-weight="400" fill="#667085">Single LLM</text>
<rect x="794" y="206" width="260" height="14" rx="4" fill="#eef2f6"/>
<rect x="794" y="206" width="211" height="14" rx="4" fill="#2563eb"/>
<text x="1066" y="219" font-family="Segoe UI, Arial, sans-serif" font-size="12" font-weight="700" fill="#172033">81.5%</text>
<text x="674" y="252" font-family="Segoe UI, Arial, sans-serif" font-size="12" font-weight="400" fill="#667085">Multi-Agent</text>
<rect x="794" y="240" width="260" height="14" rx="4" fill="#eef2f6"/>
<rect x="794" y="240" width="173" height="14" rx="4" fill="#2563eb"/>
<text x="1066" y="253" font-family="Segoe UI, Arial, sans-serif" font-size="12" font-weight="700" fill="#172033">66.7%</text>
<text x="66" y="260" font-family="Segoe UI, Arial, sans-serif" font-size="15" font-weight="700" fill="#172033">F1</text>
<text x="66" y="296" font-family="Segoe UI, Arial, sans-serif" font-size="12" font-weight="400" fill="#667085">Metrics-Only</text>
<rect x="186" y="284" width="260" height="14" rx="4" fill="#eef2f6"/>
<rect x="186" y="284" width="240" height="14" rx="4" fill="#2563eb"/>
<text x="458" y="297" font-family="Segoe UI, Arial, sans-serif" font-size="12" font-weight="700" fill="#172033">92.3%</text>
<text x="66" y="330" font-family="Segoe UI, Arial, sans-serif" font-size="12" font-weight="400" fill="#667085">Single LLM</text>
<rect x="186" y="318" width="260" height="14" rx="4" fill="#eef2f6"/>
<rect x="186" y="318" width="228" height="14" rx="4" fill="#2563eb"/>
<text x="458" y="331" font-family="Segoe UI, Arial, sans-serif" font-size="12" font-weight="700" fill="#172033">88.0%</text>
<text x="66" y="364" font-family="Segoe UI, Arial, sans-serif" font-size="12" font-weight="400" fill="#667085">Multi-Agent</text>
<rect x="186" y="352" width="260" height="14" rx="4" fill="#eef2f6"/>
<rect x="186" y="352" width="156" height="14" rx="4" fill="#2563eb"/>
<text x="458" y="365" font-family="Segoe UI, Arial, sans-serif" font-size="12" font-weight="700" fill="#172033">60.0%</text>
<text x="674" y="260" font-family="Segoe UI, Arial, sans-serif" font-size="15" font-weight="700" fill="#172033">Exact Match</text>
<text x="674" y="296" font-family="Segoe UI, Arial, sans-serif" font-size="12" font-weight="400" fill="#667085">Metrics-Only</text>
<rect x="794" y="284" width="260" height="14" rx="4" fill="#eef2f6"/>
<rect x="794" y="284" width="156" height="14" rx="4" fill="#2563eb"/>
<text x="1066" y="297" font-family="Segoe UI, Arial, sans-serif" font-size="12" font-weight="700" fill="#172033">60.0%</text>
<text x="674" y="330" font-family="Segoe UI, Arial, sans-serif" font-size="12" font-weight="400" fill="#667085">Single LLM</text>
<rect x="794" y="318" width="260" height="14" rx="4" fill="#eef2f6"/>
<rect x="794" y="318" width="156" height="14" rx="4" fill="#2563eb"/>
<text x="1066" y="331" font-family="Segoe UI, Arial, sans-serif" font-size="12" font-weight="700" fill="#172033">60.0%</text>
<text x="674" y="364" font-family="Segoe UI, Arial, sans-serif" font-size="12" font-weight="400" fill="#667085">Multi-Agent</text>
<rect x="794" y="352" width="260" height="14" rx="4" fill="#eef2f6"/>
<rect x="794" y="352" width="0" height="14" rx="4" fill="#2563eb"/>
<text x="1066" y="365" font-family="Segoe UI, Arial, sans-serif" font-size="12" font-weight="700" fill="#172033">0.0%</text>
<rect x="42" y="382" width="740" height="252" rx="8" fill="#ffffff" stroke="#d0d5dd"/>
<text x="60" y="414" font-family="Segoe UI, Arial, sans-serif" font-size="18" font-weight="700" fill="#172033">Case-Level Agreement Matrix</text>
<text x="212" y="446" font-family="Segoe UI, Arial, sans-serif" font-size="12" font-weight="700" fill="#667085">0</text>
<text x="260" y="446" font-family="Segoe UI, Arial, sans-serif" font-size="12" font-weight="700" fill="#667085">1</text>
<text x="308" y="446" font-family="Segoe UI, Arial, sans-serif" font-size="12" font-weight="700" fill="#667085">2</text>
<text x="356" y="446" font-family="Segoe UI, Arial, sans-serif" font-size="12" font-weight="700" fill="#667085">3</text>
<text x="404" y="446" font-family="Segoe UI, Arial, sans-serif" font-size="12" font-weight="700" fill="#667085">4</text>
<text x="452" y="446" font-family="Segoe UI, Arial, sans-serif" font-size="12" font-weight="700" fill="#667085">5</text>
<text x="500" y="446" font-family="Segoe UI, Arial, sans-serif" font-size="12" font-weight="700" fill="#667085">6</text>
<text x="548" y="446" font-family="Segoe UI, Arial, sans-serif" font-size="12" font-weight="700" fill="#667085">7</text>
<text x="596" y="446" font-family="Segoe UI, Arial, sans-serif" font-size="12" font-weight="700" fill="#667085">8</text>
<text x="644" y="446" font-family="Segoe UI, Arial, sans-serif" font-size="12" font-weight="700" fill="#667085">9</text>
<text x="60" y="491" font-family="Segoe UI, Arial, sans-serif" font-size="13" font-weight="700" fill="#172033">Metrics-Only</text>
<rect x="200" y="466" width="34" height="34" rx="6" fill="#ffedd5" stroke="#c2410c"/>
<text x="209" y="489" font-family="Segoe UI, Arial, sans-serif" font-size="13" font-weight="700" fill="#c2410c">M</text>
<rect x="248" y="466" width="34" height="34" rx="6" fill="#dcfce7" stroke="#2f855a"/>
<text x="257" y="489" font-family="Segoe UI, Arial, sans-serif" font-size="13" font-weight="700" fill="#2f855a">M</text>
<rect x="296" y="466" width="34" height="34" rx="6" fill="#ffedd5" stroke="#c2410c"/>
<text x="305" y="489" font-family="Segoe UI, Arial, sans-serif" font-size="13" font-weight="700" fill="#c2410c">M</text>
<rect x="344" y="466" width="34" height="34" rx="6" fill="#dcfce7" stroke="#2f855a"/>
<text x="353" y="489" font-family="Segoe UI, Arial, sans-serif" font-size="13" font-weight="700" fill="#2f855a">M</text>
<rect x="392" y="466" width="34" height="34" rx="6" fill="#fef3c7" stroke="#b45309"/>
<text x="401" y="489" font-family="Segoe UI, Arial, sans-serif" font-size="13" font-weight="700" fill="#b45309">E</text>
<rect x="440" y="466" width="34" height="34" rx="6" fill="#dcfce7" stroke="#2f855a"/>
<text x="449" y="489" font-family="Segoe UI, Arial, sans-serif" font-size="13" font-weight="700" fill="#2f855a">M</text>
<rect x="488" y="466" width="34" height="34" rx="6" fill="#ffedd5" stroke="#c2410c"/>
<text x="497" y="489" font-family="Segoe UI, Arial, sans-serif" font-size="13" font-weight="700" fill="#c2410c">M</text>
<rect x="536" y="466" width="34" height="34" rx="6" fill="#dcfce7" stroke="#2f855a"/>
<text x="545" y="489" font-family="Segoe UI, Arial, sans-serif" font-size="13" font-weight="700" fill="#2f855a">M</text>
<rect x="584" y="466" width="34" height="34" rx="6" fill="#dcfce7" stroke="#2f855a"/>
<text x="593" y="489" font-family="Segoe UI, Arial, sans-serif" font-size="13" font-weight="700" fill="#2f855a">M</text>
<rect x="632" y="466" width="34" height="34" rx="6" fill="#dcfce7" stroke="#2f855a"/>
<text x="641" y="489" font-family="Segoe UI, Arial, sans-serif" font-size="13" font-weight="700" fill="#2f855a">M</text>
<text x="60" y="537" font-family="Segoe UI, Arial, sans-serif" font-size="13" font-weight="700" fill="#172033">Single LLM</text>
<rect x="200" y="512" width="34" height="34" rx="6" fill="#ffedd5" stroke="#c2410c"/>
<text x="209" y="535" font-family="Segoe UI, Arial, sans-serif" font-size="13" font-weight="700" fill="#c2410c">M</text>
<rect x="248" y="512" width="34" height="34" rx="6" fill="#dcfce7" stroke="#2f855a"/>
<text x="257" y="535" font-family="Segoe UI, Arial, sans-serif" font-size="13" font-weight="700" fill="#2f855a">M</text>
<rect x="296" y="512" width="34" height="34" rx="6" fill="#ffedd5" stroke="#c2410c"/>
<text x="305" y="535" font-family="Segoe UI, Arial, sans-serif" font-size="13" font-weight="700" fill="#c2410c">M</text>
<rect x="344" y="512" width="34" height="34" rx="6" fill="#dcfce7" stroke="#2f855a"/>
<text x="353" y="535" font-family="Segoe UI, Arial, sans-serif" font-size="13" font-weight="700" fill="#2f855a">M</text>
<rect x="392" y="512" width="34" height="34" rx="6" fill="#fef3c7" stroke="#b45309"/>
<text x="401" y="535" font-family="Segoe UI, Arial, sans-serif" font-size="13" font-weight="700" fill="#b45309">E</text>
<rect x="440" y="512" width="34" height="34" rx="6" fill="#dcfce7" stroke="#2f855a"/>
<text x="449" y="535" font-family="Segoe UI, Arial, sans-serif" font-size="13" font-weight="700" fill="#2f855a">M</text>
<rect x="488" y="512" width="34" height="34" rx="6" fill="#ffedd5" stroke="#c2410c"/>
<text x="497" y="535" font-family="Segoe UI, Arial, sans-serif" font-size="13" font-weight="700" fill="#c2410c">M</text>
<rect x="536" y="512" width="34" height="34" rx="6" fill="#dcfce7" stroke="#2f855a"/>
<text x="545" y="535" font-family="Segoe UI, Arial, sans-serif" font-size="13" font-weight="700" fill="#2f855a">M</text>
<rect x="584" y="512" width="34" height="34" rx="6" fill="#dcfce7" stroke="#2f855a"/>
<text x="593" y="535" font-family="Segoe UI, Arial, sans-serif" font-size="13" font-weight="700" fill="#2f855a">M</text>
<rect x="632" y="512" width="34" height="34" rx="6" fill="#dcfce7" stroke="#2f855a"/>
<text x="641" y="535" font-family="Segoe UI, Arial, sans-serif" font-size="13" font-weight="700" fill="#2f855a">M</text>
<text x="60" y="583" font-family="Segoe UI, Arial, sans-serif" font-size="13" font-weight="700" fill="#172033">Multi-Agent</text>
<rect x="200" y="558" width="34" height="34" rx="6" fill="#ffedd5" stroke="#c2410c"/>
<text x="209" y="581" font-family="Segoe UI, Arial, sans-serif" font-size="13" font-weight="700" fill="#c2410c">M</text>
<rect x="248" y="558" width="34" height="34" rx="6" fill="#ede9fe" stroke="#6d28d9"/>
<text x="257" y="581" font-family="Segoe UI, Arial, sans-serif" font-size="13" font-weight="700" fill="#6d28d9">M</text>
<rect x="296" y="558" width="34" height="34" rx="6" fill="#fef3c7" stroke="#b45309"/>
<text x="305" y="581" font-family="Segoe UI, Arial, sans-serif" font-size="13" font-weight="700" fill="#b45309">E</text>
<rect x="344" y="558" width="34" height="34" rx="6" fill="#fef3c7" stroke="#b45309"/>
<text x="353" y="581" font-family="Segoe UI, Arial, sans-serif" font-size="13" font-weight="700" fill="#b45309">E</text>
<rect x="392" y="558" width="34" height="34" rx="6" fill="#ede9fe" stroke="#6d28d9"/>
<text x="401" y="581" font-family="Segoe UI, Arial, sans-serif" font-size="13" font-weight="700" fill="#6d28d9">M</text>
<rect x="440" y="558" width="34" height="34" rx="6" fill="#fef3c7" stroke="#b45309"/>
<text x="449" y="581" font-family="Segoe UI, Arial, sans-serif" font-size="13" font-weight="700" fill="#b45309">E</text>
<rect x="488" y="558" width="34" height="34" rx="6" fill="#ffedd5" stroke="#c2410c"/>
<text x="497" y="581" font-family="Segoe UI, Arial, sans-serif" font-size="13" font-weight="700" fill="#c2410c">M</text>
<rect x="536" y="558" width="34" height="34" rx="6" fill="#ede9fe" stroke="#6d28d9"/>
<text x="545" y="581" font-family="Segoe UI, Arial, sans-serif" font-size="13" font-weight="700" fill="#6d28d9">M</text>
<rect x="584" y="558" width="34" height="34" rx="6" fill="#ede9fe" stroke="#6d28d9"/>
<text x="593" y="581" font-family="Segoe UI, Arial, sans-serif" font-size="13" font-weight="700" fill="#6d28d9">M</text>
<rect x="632" y="558" width="34" height="34" rx="6" fill="#ede9fe" stroke="#6d28d9"/>
<text x="641" y="581" font-family="Segoe UI, Arial, sans-serif" font-size="13" font-weight="700" fill="#6d28d9">M</text>
<rect x="60" y="602" width="14" height="14" rx="3" fill="#dcfce7" stroke="#2f855a"/>
<text x="80" y="614" font-family="Segoe UI, Arial, sans-serif" font-size="11" font-weight="400" fill="#667085">M match</text>
<rect x="164" y="602" width="14" height="14" rx="3" fill="#ffedd5" stroke="#c2410c"/>
<text x="184" y="614" font-family="Segoe UI, Arial, sans-serif" font-size="11" font-weight="400" fill="#667085">X missed</text>
<rect x="268" y="602" width="14" height="14" rx="3" fill="#fef3c7" stroke="#b45309"/>
<text x="288" y="614" font-family="Segoe UI, Arial, sans-serif" font-size="11" font-weight="400" fill="#667085">E extra</text>
<rect x="372" y="602" width="14" height="14" rx="3" fill="#ede9fe" stroke="#6d28d9"/>
<text x="392" y="614" font-family="Segoe UI, Arial, sans-serif" font-size="11" font-weight="400" fill="#667085">B both</text>
<rect x="758" y="382" width="500" height="252" rx="8" fill="#ffffff" stroke="#d0d5dd"/>
<text x="776" y="414" font-family="Segoe UI, Arial, sans-serif" font-size="18" font-weight="700" fill="#172033">Issue Divergence</text>
<text x="955" y="430" font-family="Segoe UI, Arial, sans-serif" font-size="10" font-weight="400" fill="#667085">Metrics-Only</text>
<text x="963" y="446" font-family="Segoe UI, Arial, sans-serif" font-size="10" font-weight="700" fill="#c2410c">miss</text>
<text x="1005" y="446" font-family="Segoe UI, Arial, sans-serif" font-size="10" font-weight="700" fill="#b45309">extra</text>
<text x="1047" y="430" font-family="Segoe UI, Arial, sans-serif" font-size="10" font-weight="400" fill="#667085">Single LLM</text>
<text x="1055" y="446" font-family="Segoe UI, Arial, sans-serif" font-size="10" font-weight="700" fill="#c2410c">miss</text>
<text x="1097" y="446" font-family="Segoe UI, Arial, sans-serif" font-size="10" font-weight="700" fill="#b45309">extra</text>
<text x="1139" y="430" font-family="Segoe UI, Arial, sans-serif" font-size="10" font-weight="400" fill="#667085">Multi-Agent</text>
<text x="1147" y="446" font-family="Segoe UI, Arial, sans-serif" font-size="10" font-weight="700" fill="#c2410c">miss</text>
<text x="1189" y="446" font-family="Segoe UI, Arial, sans-serif" font-size="10" font-weight="700" fill="#b45309">extra</text>
<text x="776" y="480" font-family="Segoe UI, Arial, sans-serif" font-size="11" font-weight="400" fill="#172033">fragile counterfactual</text>
<text x="963" y="480" font-family="Segoe UI, Arial, sans-serif" font-size="12" font-weight="700" fill="#667085">0</text>
<text x="1008" y="480" font-family="Segoe UI, Arial, sans-serif" font-size="12" font-weight="700" fill="#667085">0</text>
<text x="1055" y="480" font-family="Segoe UI, Arial, sans-serif" font-size="12" font-weight="700" fill="#c2410c">1</text>
<text x="1100" y="480" font-family="Segoe UI, Arial, sans-serif" font-size="12" font-weight="700" fill="#667085">0</text>
<text x="1147" y="480" font-family="Segoe UI, Arial, sans-serif" font-size="12" font-weight="700" fill="#c2410c">6</text>
<text x="1192" y="480" font-family="Segoe UI, Arial, sans-serif" font-size="12" font-weight="700" fill="#667085">0</text>
<text x="776" y="506" font-family="Segoe UI, Arial, sans-serif" font-size="11" font-weight="400" fill="#172033">implausible time dependent change</text>
<text x="963" y="506" font-family="Segoe UI, Arial, sans-serif" font-size="12" font-weight="700" fill="#667085">0</text>
<text x="1008" y="506" font-family="Segoe UI, Arial, sans-serif" font-size="12" font-weight="700" fill="#667085">0</text>
<text x="1055" y="506" font-family="Segoe UI, Arial, sans-serif" font-size="12" font-weight="700" fill="#c2410c">1</text>
<text x="1100" y="506" font-family="Segoe UI, Arial, sans-serif" font-size="12" font-weight="700" fill="#667085">0</text>
<text x="1147" y="506" font-family="Segoe UI, Arial, sans-serif" font-size="12" font-weight="700" fill="#667085">0</text>
<text x="1192" y="506" font-family="Segoe UI, Arial, sans-serif" font-size="12" font-weight="700" fill="#b45309">2</text>
<text x="776" y="532" font-family="Segoe UI, Arial, sans-serif" font-size="11" font-weight="400" fill="#172033">inconsistent work profile</text>
<text x="963" y="532" font-family="Segoe UI, Arial, sans-serif" font-size="12" font-weight="700" fill="#c2410c">3</text>
<text x="1008" y="532" font-family="Segoe UI, Arial, sans-serif" font-size="12" font-weight="700" fill="#667085">0</text>
<text x="1055" y="532" font-family="Segoe UI, Arial, sans-serif" font-size="12" font-weight="700" fill="#c2410c">3</text>
<text x="1100" y="532" font-family="Segoe UI, Arial, sans-serif" font-size="12" font-weight="700" fill="#667085">0</text>
<text x="1147" y="532" font-family="Segoe UI, Arial, sans-serif" font-size="12" font-weight="700" fill="#667085">0</text>
<text x="1192" y="532" font-family="Segoe UI, Arial, sans-serif" font-size="12" font-weight="700" fill="#b45309">6</text>
<text x="776" y="558" font-family="Segoe UI, Arial, sans-serif" font-size="11" font-weight="400" fill="#172033">too many changes</text>
<text x="963" y="558" font-family="Segoe UI, Arial, sans-serif" font-size="12" font-weight="700" fill="#667085">0</text>
<text x="1008" y="558" font-family="Segoe UI, Arial, sans-serif" font-size="12" font-weight="700" fill="#667085">0</text>
<text x="1055" y="558" font-family="Segoe UI, Arial, sans-serif" font-size="12" font-weight="700" fill="#667085">0</text>
<text x="1100" y="558" font-family="Segoe UI, Arial, sans-serif" font-size="12" font-weight="700" fill="#667085">0</text>
<text x="1147" y="558" font-family="Segoe UI, Arial, sans-serif" font-size="12" font-weight="700" fill="#c2410c">2</text>
<text x="1192" y="558" font-family="Segoe UI, Arial, sans-serif" font-size="12" font-weight="700" fill="#b45309">4</text>
<text x="776" y="584" font-family="Segoe UI, Arial, sans-serif" font-size="11" font-weight="400" fill="#172033">unactionable capital shift</text>
<text x="963" y="584" font-family="Segoe UI, Arial, sans-serif" font-size="12" font-weight="700" fill="#667085">0</text>
<text x="1008" y="584" font-family="Segoe UI, Arial, sans-serif" font-size="12" font-weight="700" fill="#667085">0</text>
<text x="1055" y="584" font-family="Segoe UI, Arial, sans-serif" font-size="12" font-weight="700" fill="#667085">0</text>
<text x="1100" y="584" font-family="Segoe UI, Arial, sans-serif" font-size="12" font-weight="700" fill="#667085">0</text>
<text x="1147" y="584" font-family="Segoe UI, Arial, sans-serif" font-size="12" font-weight="700" fill="#c2410c">1</text>
<text x="1192" y="584" font-family="Segoe UI, Arial, sans-serif" font-size="12" font-weight="700" fill="#b45309">1</text>
<text x="776" y="610" font-family="Segoe UI, Arial, sans-serif" font-size="11" font-weight="400" fill="#172033">extreme working hours</text>
<text x="963" y="610" font-family="Segoe UI, Arial, sans-serif" font-size="12" font-weight="700" fill="#667085">0</text>
<text x="1008" y="610" font-family="Segoe UI, Arial, sans-serif" font-size="12" font-weight="700" fill="#b45309">1</text>
<text x="1055" y="610" font-family="Segoe UI, Arial, sans-serif" font-size="12" font-weight="700" fill="#667085">0</text>
<text x="1100" y="610" font-family="Segoe UI, Arial, sans-serif" font-size="12" font-weight="700" fill="#b45309">1</text>
<text x="1147" y="610" font-family="Segoe UI, Arial, sans-serif" font-size="12" font-weight="700" fill="#667085">0</text>
<text x="1192" y="610" font-family="Segoe UI, Arial, sans-serif" font-size="12" font-weight="700" fill="#b45309">2</text>
<rect x="42" y="668" width="1216" height="164" rx="8" fill="#ffffff" stroke="#d0d5dd"/>
<text x="64" y="704" font-family="Segoe UI, Arial, sans-serif" font-size="18" font-weight="700" fill="#172033">Reading The Result</text>
<text x="64" y="736" font-family="Segoe UI, Arial, sans-serif" font-size="14" font-weight="400" fill="#172033">Best F1: Metrics-Only at 92.3%. Best exact-match rate: Metrics-Only at 60.0%.</text>
<text x="64" y="764" font-family="Segoe UI, Arial, sans-serif" font-size="14" font-weight="400" fill="#172033">The comparison separates threshold-like detection strength from semantic calibration errors such as missing or over-adding issue labels.</text>
<text x="64" y="792" font-family="Segoe UI, Arial, sans-serif" font-size="14" font-weight="400" fill="#667085">Use the divergence table to decide where prompts, role instructions, or deterministic label rules need calibration before the final write-up.</text>
</svg>